<svg version="1.1" id="Layer_1" xmlns="http://www.w3.org/2000/svg" xmlns:xlink="http://www.w3.org/1999/xlink" x="0px" y="0px"
	 viewBox="0 0 19.8 36.8" style="enable-background:new 0 0 19.8 36.8;" xml:space="preserve">
  <defs>
    <filter id="bold">
      <feColorMatrix type="matrix" values="1.2 0 0 0 0
                                            0 1.2 0 0 0
                                            0 0 1.2 0 0
                                            0 0 0 1 0"/>
    </filter>
  </defs>
  <path d="M18.6,24.9c0-2.7-1.3-5.2-3.2-6.8c-1.5-1.2-3.4-2-5.5-2c-2.4,0-4.4-2-4.4-4.4c0-2.5,2-4.4,4.4-4.4s4.4,2,4.4,4.4h4
	c0-4-2.7-7.3-6.4-8.2v-3h-4v3c-3.7,0.9-6.4,4.2-6.4,8.2c0,2.5,1.1,4.8,2.9,6.4c1.5,1.3,3.4,2,5.5,2c2.6,0,4.7,2.1,4.7,4.7
	c0,2.6-2.1,4.7-4.7,4.7s-4.7-2.1-4.7-4.7h-4c0,4.1,2.9,7.6,6.7,8.5l0,3h4l0-3C15.8,32.4,18.6,29,18.6,24.9z"
    stroke="black" stroke-width="1" filter="url(#bold)" />
</svg>
